#!OML:ASF X:\für Bonn\!DataBase\2005_08_12_Daniel\c3d\Daniel.ASF
:FULLY-SPECIFIED
:DEGREES
2515
root -11.2053 16.4573 -30.7086 -15.8525 240.553 -358.364
lowerback 15.663 0.762313 -3.9186
upperback 3.15109 -0.0449272 -2.25248
thorax -5.43133 -0.0918248 -0.145095
lowerneck -2.79387 5.72702 -2.37745
upperneck 7.06561 8.06248 -6.85427
head 2.96601 3.60994 -1.53394
rclavicle -8.64713e-015 -6.36111e-015
rhumerus -48.8438 12.7738 -105.007
rradius 81.2778
rwrist 14.8553
rhand -33.0351 34.3475
rfingers 7.12502
rthumb -6.24806 4.45965
lclavicle -8.64713e-015 -6.36111e-015
lhumerus -56.73 -7.07069 86.9338
lradius 95.9306
lwrist 9.90888
lhand -0.471325 -6.49446
lfingers 7.12502
lthumb 25.1388 21.8704
rfemur 2.7058 -9.05094 1.23312
rtibia 74.266
rfoot -1.31364 0.555526
rtoes -15.8749
lfemur -25.4245 4.32187 -29.6612
ltibia 52.5042
lfoot -13.2426 4.80576
ltoes 9.12956
2516
root -11.362 16.4453 -30.8013 -15.8062 241.159 -358.599
lowerback 15.8024 0.827563 -3.89322
upperback 3.21993 0.018578 -2.42437
thorax -5.43581 -0.0671693 -0.354455
lowerneck -2.51844 5.70037 -2.31407
upperneck 7.06907 8.00763 -6.84444
head 2.917 3.59048 -1.5511
rclavicle 7.1811e-015 3.65764e-014
rhumerus -47.8855 10.9549 -104.252
rradius 77.7516
rwrist 14.0232
rhand -33.1856 33.9999
rfingers 7.12502
rthumb -6.39343 4.11639
lclavicle 7.1811e-015 3.65764e-014
lhumerus -54.1446 -4.81762 86.9335
lradius 94.4007
lwrist 7.07232
lhand -2.18737 -6.64049
lfingers 7.12502
lthumb 23.4937 21.9449
rfemur 1.07139 -8.66682 2.03517
rtibia 75.1361
rfoot -2.32491 0.577575
rtoes -15.7111
lfemur -24.9035 4.67743 -29.8499
ltibia 53.1239
lfoot -13.8995 3.83304
ltoes 10.2308
2517
root -11.5134 16.4412 -30.8926 -15.9303 241.769 -358.554
lowerback 15.8683 0.858634 -3.78064
upperback 3.28154 0.0654735 -2.51631
thorax -5.40696 -0.049621 -0.524788
lowerneck -2.32672 5.68464 -2.25478
upperneck 7.07238 7.97582 -6.89376
head 2.88733 3.57809 -1.5837
rclavicle 1.44119e-015 2.54444e-014
rhumerus -46.9841 9.26287 -103.427
rradius 73.9858
rwrist 12.6567
rhand -33.3284 33.8204
rfingers 7.12502
rthumb -6.53128 3.94112
lclavicle 1.44119e-015 2.54444e-014
lhumerus -51.7834 -2.35732 87.2708
lradius 93.2746
lwrist 4.89727
lhand -3.96106 -6.38021
lfingers 7.12502
lthumb 21.7914 22.413
rfemur -0.645296 -8.22373 3.0996
rtibia 75.8561
rfoot -3.31415 0.61057
rtoes -15.1116
lfemur -24.3973 5.005 -29.8524
ltibia 53.6407
lfoot -14.595 2.81245
ltoes 11.082
2518
root -11.6627 16.4438 -30.9729 -16.0722 242.365 -358.497
lowerback 16.0063 0.879508 -3.59549
upperback 3.29064 0.110283 -2.58116
thorax -5.47248 -0.0307964 -0.708412
lowerneck -2.084 5.6762 -2.37814
upperneck 7.07889 7.95061 -6.84562
head 2.83542 3.56743 -1.5546
rclavicle -2.43511e-014 -3.65764e-014
rhumerus -46.3824 7.81188 -102.523
rradius 70.4003
rwrist 10.9701
rhand -33.5149 33.6288
rfingers 7.12502
rthumb -6.71124 3.75518
lclavicle -2.43511e-014 -3.65764e-014
lhumerus -49.7456 0.14826 87.9173
lradius 92.6307
lwrist 3.68141
lhand -5.7251 -6.02255
lfingers 7.12502
lthumb 20.0966 22.9581
rfemur -2.37551 -7.77451 4.11689
rtibia 76.3521
rfoot -4.09013 0.754979
rtoes -14.6465
lfemur -23.7758 5.19108 -29.8601
ltibia 53.9899
lfoot -15.2714 1.91726
ltoes 11.7927
2519
root -11.8099 16.4564 -31.0426 -16.2234 242.988 -358.378
lowerback 16.1334 0.860859 -3.29017
upperback 3.30438 0.122521 -2.67656
thorax -5.52605 -0.0301485 -0.985817
lowerneck -2.01917 5.66617 -2.41402
upperneck 7.19831 7.93997 -6.82911
head 2.86113 3.55742 -1.54465
rclavicle -4.29872e-015 3.02153e-014
rhumerus -45.7854 6.57125 -101.649
rradius 66.8673
rwrist 9.03156
rhand -33.73 33.6162
rfingers 7.12502
rthumb -6.91891 3.74927
lclavicle -4.29872e-015 3.02153e-014
lhumerus -47.879 2.43586 88.7601
lradius 92.4509
lwrist 3.70867
lhand -7.54842 -5.41331
lfingers 7.12502
lthumb 18.3433 23.7418
rfemur -4.16548 -7.33372 5.11311
rtibia 76.6469
rfoot -4.84129 0.968273
rtoes -14.7741
lfemur -23.0986 5.22279 -29.8803
ltibia 54.1522
lfoot -15.8714 1.16599
ltoes 12.123
2520
root -11.9561 16.4815 -31.1123 -16.396 243.641 -358.182
lowerback 16.2277 0.852727 -2.95409
upperback 3.24644 0.160199 -2.7591
thorax -5.63765 -0.0143312 -1.27326
lowerneck -1.67457 5.65147 -2.49885
upperneck 7.22282 7.89871 -6.78569
head 2.79844 3.54049 -1.5269
rclavicle -2.67862e-014 -3.97569e-014
rhumerus -45.513 5.33677 -100.748
rradius 63.6321
rwrist 7.25523
rhand -33.9002 33.4931
rfingers 7.12502
rthumb -7.08326 3.63162
lclavicle -2.67862e-014 -3.97569e-014
lhumerus -46.2946 4.42473 89.8563
lradius 92.5565
lwrist 4.94897
lhand -9.52903 -4.89169
lfingers 7.12502
lthumb 16.4371 24.4319
rfemur -5.89932 -6.75534 6.21302
rtibia 76.6717
rfoot -5.56601 0.979038
rtoes -15.0012
lfemur -22.333 5.08991 -29.8786
ltibia 54.1014
lfoot -16.4617 0.579754
ltoes 12.1801
2521
root -12.1034 16.5204 -31.1775 -16.5843 244.353 -357.975
lowerback 16.3138 0.819747 -2.61566
upperback 3.2131 0.168622 -2.81946
thorax -5.71832 -0.0137623 -1.53243
lowerneck -1.3713 5.62738 -2.83821
upperneck 7.22251 7.84375 -6.59623
head 2.71529 3.51456 -1.41827
rclavicle 1.06847e-014 6.04305e-014
rhumerus -45.2611 4.2617 -99.7739
rradius 60.572
rwrist 5.85789
rhand -34.0525 33.4058
rfingers 7.12502
rthumb -7.23028 3.54928
lclavicle 1.06847e-014 6.04305e-014
lhumerus -45.0064 6.28974 91.1557
lradius 92.9949
lwrist 7.17664
lhand -11.5921 -4.83199
lfingers 7.12502
lthumb 14.45 24.6449
rfemur -7.46544 -6.03788 7.34724
rtibia 76.4132
rfoot -6.27596 0.898841
rtoes -15.8327
lfemur -21.4321 4.75303 -29.9076
ltibia 53.8608
lfoot -16.9982 0.146083
ltoes 11.9765
